:SAMPLES-PER-SECOND 30
:FRAME-RANGE 1-3549
:FULLY-SPECIFIED
:DEGREES
2995
root  -38.4873 37.3471 -25.2916 177.52 17.4606 -178.22
RightUpLeg  -15.0863 9.61291 13.2159
RightLeg  35.2315 -12.5627 -9.64582
RightFoot  -16.2339 -0.382625 -6.38257
RightToes  -1.11029e-010 1.2921e-014 -6.02303e-014
Spine  6.50486 -4.82419 3.51502
Spine1  2.27048 -5.93531 9.85445
HEad  -9.85919 -59.3101 12.0802
LeftShoulder1  1.52145 -0.855554 -28.8218
LeftArm  10.4741 12.8449 -35.7752
LeftForeArm  14.0116 -5.93501 -16.4006
LeftHand  0.0719246 -0.173011 -1.49392
RightShoulder  5.09516 5.43254 49.971
RightArm  36.6405 -2.24117 18.04
RightForeArm  -10.3167 21.0248 6.87598
RightHand  0.447458 4.63027 4.88363
LeftUpLeg  -19.8248 15.3315 8.88207
LeftLeg  67.6045 -0.291315 -0.0472149
LeftFoot  2.32798 0.947853 -8.01808
LeftToes  -1.9349e-011 -1.19469e-011 -2.02219e-012
2996
root  -38.7663 37.7286 -26.6132 177.72 24.7545 -179.479
RightUpLeg  -12.3583 14.2005 11.4255
RightLeg  33.5028 -10.2337 -7.48166
RightFoot  -16.7685 -0.369006 -5.39098
RightToes  -1.11029e-010 1.2921e-014 -6.02303e-014
Spine  6.57648 -4.46256 3.1163
Spine1  1.76025 -5.55159 8.85893
HEad  -9.48915 -59.8118 11.759
LeftShoulder1  1.49395 -0.779193 -28.8005
LeftArm  7.11606 15.7929 -34.935
LeftForeArm  12.429 -5.52277 -16.4064
LeftHand  0.104475 0.43421 -2.52967
RightShoulder  5.05991 5.43036 49.6399
RightArm  37.6708 -2.2659 18.8273
RightForeArm  -9.18076 23.5243 5.52394
RightHand  0.453809 4.78899 4.86939
LeftUpLeg  -21.5103 15.4205 9.18431
LeftLeg  59.9346 0.661149 1.79064
LeftFoot  -0.176119 0.628343 -6.41481
LeftToes  -1.9349e-011 -1.19469e-011 -2.02219e-012
2997
root  -38.9589 38.1562 -27.846 177.759 32.2742 178.849
RightUpLeg  -10.0827 19.517 9.31805
RightLeg  31.3717 -8.52013 -5.82269
RightFoot  -16.7364 -0.355082 -5.13277
RightToes  -1.11029e-010 1.2921e-014 -6.02303e-014
Spine  6.44451 -4.04749 1.67988
Spine1  1.4765 -5.28171 7.95653
HEad  -10.3485 -60.3129 12.3697
LeftShoulder1  1.43108 -0.574193 -29.014
LeftArm  5.51724 18.4702 -33.9007
LeftForeArm  11.164 -5.75127 -16.2574
LeftHand  0.106912 0.788909 -2.84083
RightShoulder  5.07002 5.51522 49.2718
RightArm  36.1026 -2.20601 18.8624
RightForeArm  -6.12042 26.0562 5.90805
RightHand  0.523425 4.79173 5.65878
LeftUpLeg  -21.0998 15.3909 9.86642
LeftLeg  48.1022 2.26367 3.12135
LeftFoot  -0.740983 0.660329 -7.06544
LeftToes  -1.9349e-011 -1.19469e-011 -2.02219e-012
2998
root  -39.1189 38.4328 -29.0228 178.087 39.7322 177.358
RightUpLeg  -9.31256 24.0883 7.06202
RightLeg  30.1967 -6.31816 -4.20754
RightFoot  -16.9982 -0.356782 -4.89351
RightToes  -1.11029e-010 1.2921e-014 -6.02303e-014
Spine  5.95631 -3.72101 0.0659685
Spine1  1.40376 -5.12459 7.37538
HEad  -12.108 -60.6926 14.0005
LeftShoulder1  1.34448 -0.311565 -29.1594
LeftArm  5.35753 20.7608 -32.901
LeftForeArm  10.1979 -6.08118 -16.1563
LeftHand  0.121498 0.851161 -3.2671
RightShoulder  4.99861 5.49021 48.7127
RightArm  34.9336 -2.17312 18.8116
RightForeArm  -3.64797 28.3696 6.33177
RightHand  0.551492 4.77233 5.99015
LeftUpLeg  -19.207 15.6245 11.2196
LeftLeg  34.1518 2.63282 2.27109
LeftFoot  -0.276574 0.871609 -8.96997
LeftToes  -1.9349e-011 -1.19469e-011 -2.02219e-012
2999
root  -39.2682 38.5252 -30.2141 178.164 46.8557 176.543
RightUpLeg  -8.74274 27.0649 5.37831
RightLeg  29.8692 -4.34431 -2.93725
RightFoot  -17.9023 -0.382398 -4.55806
RightToes  -1.11029e-010 1.2921e-014 -6.02303e-014
Spine  5.94374 -3.6806 -0.983497
Spine1  1.49921 -5.13669 6.83769
HEad  -13.6978 -60.7396 15.5004
LeftShoulder1  1.30496 -0.167169 -29.4726
LeftArm  5.88791 22.3582 -31.4086
LeftForeArm  9.23708 -5.9622 -16.2718
LeftHand  0.1363 0.803574 -3.60484
RightShoulder  4.78933 5.22896 48.0677
RightArm  33.8726 -1.87338 18.6254
RightForeArm  -1.56241 30.1574 6.66375
RightHand  0.558172 4.82536 6.03119
LeftUpLeg  -15.7621 15.1319 13.3831
LeftLeg  21.3814 -2.14222 -0.599822
LeftFoot  -0.514654 1.0716 -11.2493
LeftToes  -1.9349e-011 -1.19469e-011 -2.02219e-012
3000
root  -39.4474 38.4462 -31.424 177.807 53.751 175.792
RightUpLeg  -8.75664 27.2044 3.7433
RightLeg  30.8676 -3.49338 -2.49657
RightFoot  -19.5468 -0.365288 -3.24907
RightToes  -1.11029e-010 1.2921e-014 -6.02303e-014
Spine  6.12605 -3.74241 -1.79073
Spine1  1.79825 -5.22331 6.45338
HEad  -14.833 -60.4861 16.7372
LeftShoulder1  1.32352 -0.226595 -29.4036
LeftArm  5.23939 23.1404 -30.6181
LeftForeArm  8.95337 -4.59295 -16.7746
LeftHand  0.143021 1.0926 -4.08044
RightShoulder  4.69009 5.16872 47.3905
RightArm  32.084 -1.70127 18.2204
RightForeArm  -0.363807 31.2941 6.88848
RightHand  0.505297 4.58259 5.58113
LeftUpLeg  -12.1042 13.3889 15.1781
LeftLeg  13.1559 -5.79396 -1.36382
LeftFoot  1.07533 1.66901 -15.3278
LeftToes  -1.9349e-011 -1.19469e-011 -2.02219e-012
3001
root  -39.643 38.2623 -32.6646 177.354 60.5439 175.007
RightUpLeg  -9.6339 25.1242 1.92586
RightLeg  32.7615 -3.38918 -2.5952
RightFoot  -21.4149 -0.265539 -1.36865
RightToes  -1.11029e-010 1.2921e-014 -6.02303e-014
Spine  6.28221 -3.8419 -2.48348
Spine1  2.08475 -5.33351 6.09995
HEad  -14.6819 -59.7504 16.653
LeftShoulder1  1.31727 -0.207661 -29.4162
LeftArm  4.8749 22.6458 -29.7803
LeftForeArm  8.78449 -2.40655 -17.4767
LeftHand  0.147616 1.39379 -4.58031
RightShoulder  4.66192 5.17145 47.0857
RightArm  30.0341 -1.28357 17.3315
RightForeArm  0.0955584 31.488 6.91342
RightHand  0.447696 4.55693 4.92729
LeftUpLeg  -9.48089 14.5148 16.0197
LeftLeg  11.9141 -6.16264 -1.59869
LeftFoot  0.375307 2.03834 -19.7192
LeftToes  -1.9349e-011 -1.19469e-011 -2.02219e-012
